<svg width="180" height="394" viewBox="0 0 180 394" fill="none" xmlns="http://www.w3.org/2000/svg">
<g clip-path="url(#clip0_2001_2)">
<path d="M54.4154 229.467C52.2108 287.928 14.9072 386.016 31.2523 388.858C56.6201 393.272 77.0285 292.892 84.5175 260.35C92.0066 227.812 97.1785 234.939 97.9829 242.149C98.4788 246.559 97.2285 278.259 96.916 311.071C96.5534 348.631 84.5176 389 103.501 388.858C117.449 388.754 133.282 285.723 138.796 237.185C144.309 188.652 112.323 129.086 119.492 127.982C122.996 127.444 128.823 129.632 134.936 153.905C136.733 161.045 144.259 190.415 143.209 197.5C141 212.366 149.635 227.933 153.686 230.567C156.499 232.397 166.364 209.674 153.678 155.622C140.992 101.575 119.492 73.3802 91.9191 69.5208C64.3425 65.6615 73.7195 42.4971 74.8197 36.979C75.9241 31.4651 69.8562 -0.52244 40.6292 7.19624C11.3981 14.9191 24.6342 63.4526 37.3119 71.7256C49.9937 79.9986 40.6292 79.9986 27.4473 93.7897C14.2654 107.577 19.6707 221.194 35.1114 248.768C50.5563 276.346 49.4519 233.326 41.1794 216.23C32.9068 199.13 40.9335 146.737 40.9335 146.737C40.9335 146.737 56.6201 171.002 54.4154 229.467Z" fill="black"/>
</g>
<defs>
<clipPath id="clip0_2001_2">
<rect width="140" height="383" fill="white" transform="translate(20 6)"/>
</clipPath>
</defs>
</svg>
