<svg width="180" height="394" viewBox="0 0 180 394" fill="none" xmlns="http://www.w3.org/2000/svg">
<g clip-path="url(#clip0_2001_2)">
<path d="M139.062 146.737C139.062 146.737 147.089 199.13 138.817 216.23C130.544 233.326 129.44 276.346 144.884 248.768C160.325 221.194 165.73 107.577 152.549 93.7896C139.367 79.9985 130.002 79.9985 142.684 71.7255C155.362 63.4525 168.598 14.919 139.367 7.19615C110.14 -0.522532 104.072 31.465 105.176 36.9789C106.276 42.497 115.653 65.6614 88.0768 69.5208C60.5044 73.3801 39.004 101.575 26.3181 155.622C13.6321 209.674 23.4966 232.397 26.3097 230.567C30.3606 227.933 38.9957 212.366 36.7869 197.5C35.7367 190.415 43.2633 161.045 45.0595 153.905C51.1732 129.632 56.9995 127.444 60.5044 127.982C67.6725 129.086 35.6867 188.652 41.2003 237.185C46.714 285.723 62.5464 388.754 76.4952 388.858C95.4783 389 83.4425 348.631 83.0799 311.071C82.7673 278.259 81.5171 246.559 82.013 242.149C82.8173 234.939 87.9892 227.812 95.4783 260.35C102.967 292.892 123.376 393.272 148.744 388.858C165.089 386.016 127.785 287.928 125.58 229.467C123.376 171.001 139.062 146.737 139.062 146.737ZM144.088 34.1365C144.83 29.6103 153.849 30.5064 153.011 35.5994C152.178 40.6924 143.072 40.359 144.088 34.1365ZM124.122 29.5937C124.968 24.4507 135.733 25.5551 134.787 31.34C133.836 37.1248 122.967 36.6622 124.122 29.5937Z" fill="black"/>
</g>
<defs>
<clipPath id="clip0_2001_2">
<rect width="140" height="383" fill="white" transform="translate(20 6)"/>
</clipPath>
</defs>
</svg>
