<svg width="180" height="394" viewBox="0 0 180 394" fill="none" xmlns="http://www.w3.org/2000/svg">
<g clip-path="url(#clip0_2001_2)">
<path d="M30.1551 183.766C12.0381 163.213 -21.1137 105.739 22.6544 63.9112C66.4183 22.0872 115.737 58.3569 121.083 63.3024C134.869 76.0539 135.817 86.3827 145.819 87.0082C155.821 87.6337 180.174 90.3191 178.954 113.812C177.735 137.301 167.699 141.942 153.32 142.568C138.941 143.193 110.805 116.973 110.805 116.973C110.805 116.973 99.8792 123.645 94.1284 129.85C88.3107 136.121 79.5446 150.682 82.0462 152.555C84.5478 154.427 100.802 160.669 100.802 173.779C100.802 186.89 87.0495 186.89 87.0495 186.89C87.0495 186.89 106.432 230.586 93.3015 270.538C80.171 310.489 68.2935 367.296 77.6694 366.67C87.0495 366.045 142.064 392.886 76.4207 388.52C10.7727 384.15 32.0303 380.406 33.2832 354.811C34.795 323.854 71.4216 230.586 30.1551 183.77V183.766Z" fill="black"/>
</g>
<defs>
<clipPath id="clip0_2001_2">
<rect width="178" height="345" fill="white" transform="translate(1 44)"/>
</clipPath>
</defs>
</svg>
