<svg width="512" height="512" viewBox="0 0 512 512" fill="none" xmlns="http://www.w3.org/2000/svg">
<g clip-path="url(#clip0_2002_2)">
<mask id="mask0_2002_2" style="mask-type:alpha" maskUnits="userSpaceOnUse" x="6" y="6" width="501" height="925">
<path d="M134.596 475.388C170.675 495.524 212.247 507 256.5 507C279.05 507 300.904 504.019 321.69 498.432C320.361 517.797 319.924 539.618 320.845 564.032C325.915 698.508 411.714 924.136 374.12 930.675C315.774 940.827 268.835 709.926 251.61 635.071C234.386 560.226 222.49 576.62 220.64 593.205C219.499 603.348 222.375 676.266 223.094 751.744C223.928 838.141 251.609 931.001 207.948 930.675C175.866 930.433 139.452 693.436 126.771 581.787C122.838 547.172 127.199 510.117 134.596 475.388ZM395.498 464.928C389.932 526.174 379.43 583.092 365.244 608.429C329.721 671.865 332.261 572.91 351.288 533.584C356.713 522.369 359.089 504.554 359.716 484.814C372.226 479.15 384.186 472.486 395.498 464.928ZM83.8145 437.966C94.5824 448.216 106.261 457.517 118.718 465.736C116.887 476.654 115.916 485.752 116.62 490.5C121.7 524.697 101.839 560.505 92.5225 566.563C86.8716 570.239 68.8494 530.835 83.8145 437.966ZM351.854 373.731C351.854 373.731 361.287 435.322 359.716 484.814C347.53 490.332 334.823 494.902 321.69 498.432C327.685 411.121 351.854 373.731 351.854 373.731ZM135.646 390.221C149.708 334.387 163.109 329.354 171.17 330.591C182.544 332.344 151.053 398.109 134.596 475.388C129.176 472.363 123.88 469.143 118.718 465.736C123.172 439.179 132.719 401.859 135.646 390.221ZM256.5 6C394.847 6 507 118.153 507 256.5C507 343.424 462.725 420.005 395.498 464.928C403.867 372.849 401.079 270.985 382.871 251.939C352.553 220.217 331.015 220.216 360.183 201.187C389.341 182.156 419.784 70.5165 352.553 52.752C285.331 34.9973 271.375 108.576 273.915 121.26C276.446 133.953 298.012 187.237 234.586 196.114C171.17 204.992 121.719 269.848 92.541 394.171C88.8465 409.914 85.9841 424.502 83.8145 437.966C35.8783 392.335 6 327.907 6 256.5C6.00001 118.153 118.153 6 256.5 6Z" fill="#231F20"/>
</mask>
<g mask="url(#mask0_2002_2)">
<circle cx="256" cy="256" r="247" fill="white"/>
</g>
</g>
<defs>
<clipPath id="clip0_2002_2">
<rect width="512" height="512" fill="white"/>
</clipPath>
</defs>
</svg>
